<svg width="22" height="21" viewBox="0 0 22 21" fill="none" xmlns="http://www.w3.org/2000/svg">
<path d="M0.75 15.75C0.75 13.864 0.75 12.922 1.336 12.336C1.922 11.75 2.864 11.75 4.75 11.75H16.75C18.636 11.75 19.578 11.75 20.164 12.336C20.75 12.922 20.75 13.864 20.75 15.75C20.75 17.636 20.75 18.578 20.164 19.164C19.578 19.75 18.636 19.75 16.75 19.75H4.75C2.864 19.75 1.922 19.75 1.336 19.164C0.75 18.578 0.75 17.636 0.75 15.75ZM0.75 4.75C0.75 2.864 0.75 1.922 1.336 1.336C1.922 0.75 2.864 0.75 4.75 0.75H16.75C18.636 0.75 19.578 0.75 20.164 1.336C20.75 1.922 20.75 2.864 20.75 4.75C20.75 6.636 20.75 7.578 20.164 8.164C19.578 8.75 18.636 8.75 16.75 8.75H4.75C2.864 8.75 1.922 8.75 1.336 8.164C0.75 7.578 0.75 6.636 0.75 4.75Z" stroke="white" stroke-width="1.5"/>
<path d="M9.75 4.75H16.75M4.75 4.75H6.75M9.75 15.75H16.75M4.75 15.75H6.75" stroke="white" stroke-width="1.5" stroke-linecap="round"/>
</svg>
