<svg width="28" height="28" viewBox="0 0 28 28" fill="none" xmlns="http://www.w3.org/2000/svg">
<path d="M2.00391 11.75C2.00391 10.7554 2.39899 9.80161 3.10226 9.09835C3.80552 8.39509 4.75934 8 5.75391 8H22.2499C23.2445 8 24.1983 8.39509 24.9016 9.09835C25.6048 9.80161 25.9999 10.7554 25.9999 11.75V16.25C25.9999 17.2446 25.6048 18.1984 24.9016 18.9017C24.1983 19.6049 23.2445 20 22.2499 20H5.75491C4.76034 20 3.80652 19.6049 3.10326 18.9017C2.39999 18.1984 2.00491 17.2446 2.00491 16.25L2.00391 11.75ZM5.75391 9.5C5.15717 9.5 4.58487 9.73705 4.16292 10.159C3.74096 10.581 3.50391 11.1533 3.50391 11.75V16.25C3.50391 16.8467 3.74096 17.419 4.16292 17.841C4.58487 18.2629 5.15717 18.5 5.75391 18.5H22.2499C22.8466 18.5 23.4189 18.2629 23.8409 17.841C24.2629 17.419 24.4999 16.8467 24.4999 16.25V11.75C24.4999 11.1533 24.2629 10.581 23.8409 10.159C23.4189 9.73705 22.8466 9.5 22.2499 9.5H5.75391ZM18.7499 12.5C18.7499 12.8315 18.6182 13.1495 18.3838 13.3839C18.1494 13.6183 17.8314 13.75 17.4999 13.75C17.1684 13.75 16.8504 13.6183 16.616 13.3839C16.3816 13.1495 16.2499 12.8315 16.2499 12.5C16.2499 12.1685 16.3816 11.8505 16.616 11.6161C16.8504 11.3817 17.1684 11.25 17.4999 11.25C17.8314 11.25 18.1494 11.3817 18.3838 11.6161C18.6182 11.8505 18.7499 12.1685 18.7499 12.5ZM21.4999 13.75C21.8314 13.75 22.1494 13.6183 22.3838 13.3839C22.6182 13.1495 22.7499 12.8315 22.7499 12.5C22.7499 12.1685 22.6182 11.8505 22.3838 11.6161C22.1494 11.3817 21.8314 11.25 21.4999 11.25C21.1684 11.25 20.8504 11.3817 20.616 11.6161C20.3816 11.8505 20.2499 12.1685 20.2499 12.5C20.2499 12.8315 20.3816 13.1495 20.616 13.3839C20.8504 13.6183 21.1684 13.75 21.4999 13.75Z" fill="white"/>
</svg>
