<svg width="25" height="25" viewBox="0 0 25 25" fill="none" xmlns="http://www.w3.org/2000/svg">
<path d="M24 12.5C24 18.8513 18.8513 24 12.5 24C6.14873 24 1 18.8513 1 12.5C1 6.14873 6.14873 1 12.5 1C18.8513 1 24 6.14873 24 12.5Z" fill="white"/>
<mask id="mask0_518_5455" style="mask-type:luminance" maskUnits="userSpaceOnUse" x="1" y="1" width="23" height="23">
<path d="M12.5007 22.9167C13.8688 22.9184 15.2239 22.6497 16.4879 22.1261C17.7519 21.6025 18.9 20.8343 19.8663 19.8657C20.8349 18.8994 21.6032 17.7513 22.1267 16.4873C22.6503 15.2233 22.919 13.8682 22.9173 12.5C22.919 11.1319 22.6503 9.77683 22.1267 8.5128C21.6032 7.24877 20.8349 6.10066 19.8663 5.13442C18.9 4.16576 17.7519 3.39756 16.4879 2.87396C15.2239 2.35037 13.8688 2.08169 12.5007 2.08338C11.1325 2.08169 9.77745 2.35037 8.51341 2.87396C7.24938 3.39756 6.10127 4.16576 5.13503 5.13442C4.16637 6.10066 3.39817 7.24877 2.87457 8.5128C2.35098 9.77683 2.08231 11.1319 2.08399 12.5C2.08231 13.8682 2.35098 15.2233 2.87457 16.4873C3.39817 17.7513 4.16637 18.8994 5.13503 19.8657C6.10127 20.8343 7.24938 21.6025 8.51341 22.1261C9.77745 22.6497 11.1325 22.9184 12.5007 22.9167Z" fill="white"/>
<path d="M12.501 1.08435C14.0003 1.08271 15.4849 1.37681 16.8701 1.95056C18.255 2.52421 19.5134 3.36517 20.5723 4.42615C21.6342 5.48542 22.4768 6.74451 23.0508 8.13025C23.6244 9.51506 23.9185 10.9995 23.917 12.4984C23.9189 13.9982 23.6247 15.4839 23.0508 16.8695C22.4771 18.2544 21.6343 19.5118 20.5733 20.5707L20.5742 20.5717C19.515 21.6336 18.2559 22.4762 16.8701 23.0502C15.485 23.6239 14.0002 23.917 12.501 23.9154L12.502 23.9164L12.5 23.9154L12.499 23.9164V23.9154C11.0001 23.9169 9.51568 23.6238 8.13087 23.0502C6.74512 22.4762 5.48604 21.6336 4.42677 20.5717V20.5707C3.36602 19.5119 2.52474 18.2542 1.95118 16.8695C1.37723 15.4838 1.08214 13.9982 1.08399 12.4984C1.08252 10.9995 1.37753 9.51511 1.95118 8.13025C2.52519 6.74453 3.36679 5.48541 4.42872 4.42615C5.48759 3.3651 6.74596 2.52424 8.13087 1.95056C9.51573 1.37692 11.0001 1.08288 12.499 1.08435H12.5L12.502 1.08337L12.501 1.08435ZM12.499 3.08337C11.2628 3.0819 10.0386 3.32514 8.89649 3.79822C7.75421 4.27138 6.71596 4.96486 5.84278 5.84021L5.84083 5.84216C4.96548 6.71534 4.272 7.75359 3.79884 8.89587C3.32576 10.038 3.08252 11.2622 3.08399 12.4984V12.5013C3.08248 13.7378 3.32567 14.9626 3.79884 16.1049C4.27197 17.2469 4.96565 18.2845 5.84083 19.1576L5.84278 19.1595C6.71598 20.0349 7.75418 20.7293 8.89649 21.2025C10.0386 21.6755 11.2629 21.9179 12.499 21.9164H12.502C13.7384 21.9179 14.9632 21.6757 16.1055 21.2025C17.2477 20.7294 18.2851 20.0349 19.1582 19.1595L19.1602 19.1576C20.0355 18.2844 20.73 17.2471 21.2031 16.1049C21.6763 14.9626 21.9185 13.7378 21.917 12.5013V12.4984C21.9185 11.2623 21.6762 10.038 21.2031 8.89587C20.73 7.75356 20.0356 6.71536 19.1602 5.84216L19.1582 5.84021C18.2852 4.96503 17.2475 4.27135 16.1055 3.79822C14.9632 3.32505 13.7384 3.08186 12.502 3.08337H12.499Z" fill="white"/>
<path d="M17.0019 8.66802C17.3924 8.27749 18.0254 8.27749 18.4159 8.66802C18.8065 9.05854 18.8065 9.69155 18.4159 10.0821L12.1659 16.3321C11.7754 16.7226 11.1424 16.7226 10.7519 16.3321L7.62688 13.2071C7.23635 12.8166 7.23635 12.1835 7.62688 11.793C8.0174 11.4025 8.65042 11.4025 9.04094 11.793L11.4589 14.211L17.0019 8.66802Z" fill="black"/>
</mask>
<g mask="url(#mask0_518_5455)">
<path d="M0 0H25V25H0V0Z" fill="#16A34A"/>
</g>
</svg>
