<svg width="18" height="18" viewBox="0 0 18 18" fill="none" xmlns="http://www.w3.org/2000/svg">
<path d="M16 3H2C1.73478 3 1.48043 3.10536 1.29289 3.29289C1.10536 3.48043 1 3.73478 1 4V14C1 14.2652 1.10536 14.5196 1.29289 14.7071C1.48043 14.8946 1.73478 15 2 15H16C16.2652 15 16.5196 14.8946 16.7071 14.7071C16.8946 14.5196 17 14.2652 17 14V4C17 3.73478 16.8946 3.48043 16.7071 3.29289C16.5196 3.10536 16.2652 3 16 3ZM2 4H16V6.54H11.9V4.54H11V6.54H7V4.54H6V6.54H2V4ZM2 7.5H16V10.54H14.46V8.135H13.5V10.54H9.46V8.135H8.5V10.54H4.45V8.135H3.5V10.54H2V7.5ZM11.9 14V12.135H11.1V14H7V12.135H6.2V14H2V11.5H16V14H11.9Z" fill="black"/>
</svg>
