<svg width="77" height="69" viewBox="0 0 77 69" fill="none" xmlns="http://www.w3.org/2000/svg">
<path d="M64.0102 16C63.4579 16 63.0102 16.4477 63.0102 17C63.0104 17.0515 63.0098 17.0396 63.0102 17.0938C63.0179 18.1489 62.8949 19.0312 62.4164 19.9688C61.317 22.1231 58.7556 23.3138 54.0102 22.9062C50.8647 22.6361 48.6198 24.5813 47.0414 27.9062C46.5746 28.8897 46.212 29.8879 45.854 31.0625C45.7869 31.2825 45.5767 31.949 45.5414 32.0625C45.5071 32.1733 45.4936 32.2448 45.479 32.2812C45.4807 32.2769 45.4942 32.2776 45.5102 32.25C45.5881 32.1162 45.676 32.0109 45.8852 31.9062C45.3912 32.1532 45.2007 32.756 45.4477 33.25C45.6947 33.744 46.2975 33.9345 46.7914 33.6875C47.0209 33.5728 47.1263 33.4264 47.229 33.25C47.2691 33.1811 47.2915 33.1088 47.3227 33.0312C47.3625 32.9323 47.3984 32.8151 47.4477 32.6562C47.488 32.5264 47.6972 31.8629 47.7602 31.6562C48.092 30.5676 48.4363 29.6298 48.854 28.75C50.1146 26.0943 51.7308 24.7239 53.854 24.9062C59.3587 25.379 62.6987 23.8121 64.1977 20.875C64.5729 20.1398 64.7974 19.392 64.9164 18.5938C64.9969 18.0543 65.0141 17.6258 65.0102 17.0938C65.0098 17.0399 65.0103 17.0371 65.0102 17C65.0102 16.4477 64.5625 16 64.0102 16Z" fill="black"/>
<path d="M24.0083 16C23.456 16 23.0083 16.4477 23.0083 17C23.0082 17.0371 23.0087 17.0399 23.0083 17.0938C23.0044 17.6258 23.0216 18.0543 23.1021 18.5938C23.2211 19.392 23.4456 20.1398 23.8208 20.875C25.3198 23.8121 28.6598 25.3791 34.1645 24.9062C36.2877 24.7239 37.9039 26.0943 39.1645 28.75C39.5822 29.6298 39.9265 30.5676 40.2583 31.6562C40.3213 31.8629 40.5305 32.5264 40.5708 32.6562C40.6201 32.8151 40.656 32.9323 40.6958 33.0312C40.727 33.1088 40.7494 33.1811 40.7895 33.25C40.8922 33.4264 40.9976 33.5728 41.2271 33.6875C41.721 33.9345 42.3238 33.744 42.5708 33.25C42.8178 32.756 42.6273 32.1532 42.1333 31.9062C42.3425 32.0109 42.4304 32.1162 42.5083 32.25C42.5243 32.2776 42.5378 32.2769 42.5395 32.2812C42.5249 32.2448 42.5114 32.1733 42.4771 32.0625C42.4418 31.949 42.2316 31.2825 42.1645 31.0625C41.8065 29.8879 41.4439 28.8897 40.9771 27.9062C39.3987 24.5813 37.1538 22.6361 34.0083 22.9062C29.2629 23.3138 26.7015 22.1231 25.6021 19.9688C25.1236 19.0312 25.0006 18.1489 25.0083 17.0938C25.0087 17.0396 25.0081 17.0515 25.0083 17C25.0083 16.4477 24.5606 16 24.0083 16Z" fill="black"/>
<path d="M8.00974 31C7.14884 31 6.37574 31.5583 6.10354 32.375C5.91594 32.9375 0.291037 49.8125 0.103537 50.375C-0.328163 51.6701 0.644637 53 2.00974 53H74.0097C75.3748 53 76.3476 51.6701 75.9159 50.375L69.9159 32.375C69.6437 31.5583 68.8706 31 68.0097 31H8.00974ZM9.44724 35H66.5722L71.2285 49H4.79094C5.99014 45.4024 8.70354 37.231 9.44724 35Z" fill="black"/>
<path d="M2.00781 49C0.903213 49 0.0078125 49.8954 0.0078125 51C0.0078125 51.5 0.0078125 66.5 0.0078125 67C0.0078125 68.1046 0.903213 69 2.00781 69H74.0078C75.1124 69 76.0078 68.1046 76.0078 67V51C76.0078 49.8954 75.1124 49 74.0078 49H2.00781ZM4.00781 53H72.0078V65H4.00781C4.00781 62.2461 4.00781 55.7539 4.00781 53Z" fill="black"/>
<path d="M6.00781 58C6.00781 56.3431 7.35091 55 9.00781 55C10.6647 55 12.0078 56.3431 12.0078 58C12.0078 59.6569 10.6647 61 9.00781 61C7.35091 61 6.00781 59.6569 6.00781 58Z" fill="black"/>
<path d="M12.0078 38C12.0078 37.4477 12.4555 37 13.0078 37C13.5601 37 14.0078 37.4477 14.0078 38C14.0078 38.5523 13.5601 39 13.0078 39C12.4555 39 12.0078 38.5523 12.0078 38Z" fill="black"/>
<path d="M10.0078 46C10.0078 45.4477 10.4555 45 11.0078 45C11.5601 45 12.0078 45.4477 12.0078 46C12.0078 46.5523 11.5601 47 11.0078 47C10.4555 47 10.0078 46.5523 10.0078 46Z" fill="black"/>
<path d="M66.0078 46C66.0078 45.4477 66.4555 45 67.0078 45C67.5601 45 68.0078 45.4477 68.0078 46C68.0078 46.5523 67.5601 47 67.0078 47C66.4555 47 66.0078 46.5523 66.0078 46Z" fill="black"/>
<path d="M62.0078 38C62.0078 37.4477 62.4555 37 63.0078 37C63.5601 37 64.0078 37.4477 64.0078 38C64.0078 38.5523 63.5601 39 63.0078 39C62.4555 39 62.0078 38.5523 62.0078 38Z" fill="black"/>
<path d="M16.0078 58C16.0078 56.3431 17.3509 55 19.0078 55C20.6647 55 22.0078 56.3431 22.0078 58C22.0078 59.6569 20.6647 61 19.0078 61C17.3509 61 16.0078 59.6569 16.0078 58Z" fill="black"/>
<path d="M26.0078 58C26.0078 56.3431 27.3509 55 29.0078 55C30.6647 55 32.0078 56.3431 32.0078 58C32.0078 59.6569 30.6647 61 29.0078 61C27.3509 61 26.0078 59.6569 26.0078 58Z" fill="black"/>
<path d="M36.0078 58C36.0078 56.3431 37.3509 55 39.0078 55C40.6647 55 42.0078 56.3431 42.0078 58C42.0078 59.6569 40.6647 61 39.0078 61C37.3509 61 36.0078 59.6569 36.0078 58Z" fill="black"/>
<path d="M6.00781 62V64H12.0078V62H6.00781Z" fill="black"/>
<path d="M16.0078 62V64H22.0078V62H16.0078Z" fill="black"/>
<path d="M26.0078 62V64H32.0078V62H26.0078Z" fill="black"/>
<path d="M36.0078 62V64H42.0078V62H36.0078Z" fill="black"/>
<path d="M48.0078 60.5C47.7317 60.5 47.5078 60.7239 47.5078 61C47.5078 61.25 47.5078 62.75 47.5078 63C47.5078 63.2761 47.7317 63.5 48.0078 63.5H54.0078C54.2839 63.5 54.5078 63.2761 54.5078 63V61C54.5078 60.7239 54.2839 60.5 54.0078 60.5H48.0078ZM48.5078 61.5H53.5078V62.5H48.5078C48.5078 62.1406 48.5078 61.8594 48.5078 61.5Z" fill="black"/>
<path d="M56.0078 60.5C55.7317 60.5 55.5078 60.7239 55.5078 61C55.5078 61.25 55.5078 62.75 55.5078 63C55.5078 63.2761 55.7317 63.5 56.0078 63.5H62.0078C62.2839 63.5 62.5078 63.2761 62.5078 63V61C62.5078 60.7239 62.2839 60.5 62.0078 60.5H56.0078ZM56.5078 61.5H61.5078V62.5H56.5078C56.5078 62.1406 56.5078 61.8594 56.5078 61.5Z" fill="black"/>
<path d="M68.0078 54.5C66.6271 54.5 65.5078 55.6193 65.5078 57C65.5078 58.3807 66.6271 59.5 68.0078 59.5C69.3885 59.5 70.5078 58.3807 70.5078 57C70.5078 55.6193 69.3885 54.5 68.0078 54.5ZM68.0078 55.5C68.8362 55.5 69.5078 56.1716 69.5078 57C69.5078 57.8284 68.8362 58.5 68.0078 58.5C67.1794 58.5 66.5078 57.8284 66.5078 57C66.5078 56.1716 67.1794 55.5 68.0078 55.5Z" fill="black"/>
<path d="M68.0078 56.5C67.7317 56.5 67.5078 56.7239 67.5078 57V59C67.5078 59.2761 67.7317 59.5 68.0078 59.5C68.2839 59.5 68.5078 59.2761 68.5078 59V57C68.5078 56.7239 68.2839 56.5 68.0078 56.5Z" fill="black"/>
<path d="M2.00781 0C1.45551 0 1.00781 0.4477 1.00781 1C1.00781 1.5 1.00781 16.5 1.00781 17C1.00781 17.5523 1.45551 18 2.00781 18H48.0078C48.5601 18 49.0078 17.5523 49.0078 17V1C49.0078 0.4477 48.5601 0 48.0078 0H2.00781ZM3.00781 2H47.0078V16H3.00781C3.00781 14.0757 3.00781 3.9243 3.00781 2Z" fill="black"/>
<path d="M7.25781 3.93717C7.17181 3.94057 7.09371 3.96417 7.00781 3.96847C6.81671 3.97777 6.63661 3.99567 6.44531 3.99967C6.38021 4.00107 6.16151 4.00227 6.22661 3.99967C6.48271 3.98927 6.23921 3.99837 6.00781 3.99967C5.45251 3.99967 5.00781 4.44437 5.00781 4.99967C5.00781 5.55497 5.45251 5.99967 6.00781 5.99967C6.44491 6.01207 6.28181 5.99477 6.44531 5.99967C6.60921 6.00457 6.92151 6.03247 6.88281 6.03087C6.92371 6.03237 6.96691 6.02937 7.00781 6.03087C7.09231 6.03557 7.17321 6.05887 7.25781 6.06217C7.36191 6.06627 7.67441 6.06757 7.57031 6.06217C7.38031 6.05237 7.57811 6.05707 8.00781 6.06217C8.59431 6.06217 9.07031 5.58617 9.07031 4.99967C9.07031 4.41317 8.59431 3.93717 8.00781 3.93717C7.57071 3.94957 7.74251 3.93197 7.57031 3.93717C7.67441 3.93177 7.36191 3.93307 7.25781 3.93717Z" fill="black"/>
<path d="M7.25781 7.93717C7.17181 7.94057 7.09371 7.96417 7.00781 7.96847C6.81671 7.97777 6.63661 7.99567 6.44531 7.99967C6.38021 8.00107 6.16151 8.00227 6.22661 7.99967C6.48271 7.98927 6.23921 7.99837 6.00781 7.99967C5.45251 7.99967 5.00781 8.44437 5.00781 8.99967C5.00781 9.55497 5.45251 9.99967 6.00781 9.99967C6.44491 10.0121 6.28181 9.99477 6.44531 9.99967C6.60921 10.0046 6.92151 10.0325 6.88281 10.0309C6.92371 10.0324 6.96691 10.0294 7.00781 10.0309C7.09231 10.0356 7.17321 10.0589 7.25781 10.0622C7.36191 10.0663 7.67441 10.0676 7.57031 10.0622C7.38031 10.0524 7.57811 10.0571 8.00781 10.0622C8.59431 10.0622 9.07031 9.58617 9.07031 8.99967C9.07031 8.41317 8.59431 7.93717 8.00781 7.93717C7.57071 7.94957 7.74251 7.93197 7.57031 7.93717C7.67441 7.93177 7.36191 7.93307 7.25781 7.93717Z" fill="black"/>
<path d="M7.25781 11.9372C7.17181 11.9406 7.09371 11.9642 7.00781 11.9685C6.81671 11.9778 6.63661 11.9957 6.44531 11.9997C6.38021 12.0011 6.16151 12.0023 6.22661 11.9997C6.48271 11.9893 6.23921 11.9984 6.00781 11.9997C5.45251 11.9997 5.00781 12.4444 5.00781 12.9997C5.00781 13.555 5.45251 13.9997 6.00781 13.9997C6.44491 14.0121 6.28181 13.9948 6.44531 13.9997C6.60921 14.0046 6.92151 14.0325 6.88281 14.0309C6.92371 14.0324 6.96691 14.0294 7.00781 14.0309C7.09231 14.0356 7.17321 14.0589 7.25781 14.0622C7.36191 14.0663 7.67441 14.0676 7.57031 14.0622C7.38031 14.0524 7.57811 14.0571 8.00781 14.0622C8.59431 14.0622 9.07031 13.5862 9.07031 12.9997C9.07031 12.4132 8.59431 11.9372 8.00781 11.9372C7.57071 11.9496 7.74251 11.932 7.57031 11.9372C7.67441 11.9318 7.36191 11.9331 7.25781 11.9372Z" fill="black"/>
<path d="M13.2578 3.93717C13.1718 3.94057 13.0937 3.96417 13.0078 3.96847C12.8167 3.97777 12.6366 3.99567 12.4453 3.99967C12.3802 4.00107 12.1615 4.00227 12.2266 3.99967C12.4827 3.98927 12.2392 3.99837 12.0078 3.99967C11.4525 3.99967 11.0078 4.44437 11.0078 4.99967C11.0078 5.55497 11.4525 5.99967 12.0078 5.99967C12.4449 6.01207 12.2818 5.99477 12.4453 5.99967C12.6092 6.00457 12.9215 6.03247 12.8828 6.03087C12.9237 6.03237 12.9669 6.02937 13.0078 6.03087C13.0923 6.03557 13.1732 6.05887 13.2578 6.06217C13.3619 6.06627 13.6744 6.06757 13.5703 6.06217C13.3803 6.05237 13.5781 6.05707 14.0078 6.06217C14.5943 6.06217 15.0703 5.58617 15.0703 4.99967C15.0703 4.41317 14.5943 3.93717 14.0078 3.93717C13.5707 3.94957 13.7425 3.93197 13.5703 3.93717C13.6744 3.93177 13.3619 3.93307 13.2578 3.93717Z" fill="black"/>
<path d="M13.2578 7.93717C13.1718 7.94057 13.0937 7.96417 13.0078 7.96847C12.8167 7.97777 12.6366 7.99567 12.4453 7.99967C12.3802 8.00107 12.1615 8.00227 12.2266 7.99967C12.4827 7.98927 12.2392 7.99837 12.0078 7.99967C11.4525 7.99967 11.0078 8.44437 11.0078 8.99967C11.0078 9.55497 11.4525 9.99967 12.0078 9.99967C12.4449 10.0121 12.2818 9.99477 12.4453 9.99967C12.6092 10.0046 12.9215 10.0325 12.8828 10.0309C12.9237 10.0324 12.9669 10.0294 13.0078 10.0309C13.0923 10.0356 13.1732 10.0589 13.2578 10.0622C13.3619 10.0663 13.6744 10.0676 13.5703 10.0622C13.3803 10.0524 13.5781 10.0571 14.0078 10.0622C14.5943 10.0622 15.0703 9.58617 15.0703 8.99967C15.0703 8.41317 14.5943 7.93717 14.0078 7.93717C13.5707 7.94957 13.7425 7.93197 13.5703 7.93717C13.6744 7.93177 13.3619 7.93307 13.2578 7.93717Z" fill="black"/>
<path d="M13.2578 11.9372C13.1718 11.9406 13.0937 11.9642 13.0078 11.9685C12.8167 11.9778 12.6366 11.9957 12.4453 11.9997C12.3802 12.0011 12.1615 12.0023 12.2266 11.9997C12.4827 11.9893 12.2392 11.9984 12.0078 11.9997C11.4525 11.9997 11.0078 12.4444 11.0078 12.9997C11.0078 13.555 11.4525 13.9997 12.0078 13.9997C12.4449 14.0121 12.2818 13.9948 12.4453 13.9997C12.6092 14.0046 12.9215 14.0325 12.8828 14.0309C12.9237 14.0324 12.9669 14.0294 13.0078 14.0309C13.0923 14.0356 13.1732 14.0589 13.2578 14.0622C13.3619 14.0663 13.6744 14.0676 13.5703 14.0622C13.3803 14.0524 13.5781 14.0571 14.0078 14.0622C14.5943 14.0622 15.0703 13.5862 15.0703 12.9997C15.0703 12.4132 14.5943 11.9372 14.0078 11.9372C13.5707 11.9496 13.7425 11.932 13.5703 11.9372C13.6744 11.9318 13.3619 11.9331 13.2578 11.9372Z" fill="black"/>
<path d="M19.2578 3.93717C19.1718 3.94057 19.0937 3.96417 19.0078 3.96847C18.8167 3.97777 18.6366 3.99567 18.4453 3.99967C18.3802 4.00107 18.1615 4.00227 18.2266 3.99967C18.4827 3.98927 18.2392 3.99837 18.0078 3.99967C17.4525 3.99967 17.0078 4.44437 17.0078 4.99967C17.0078 5.55497 17.4525 5.99967 18.0078 5.99967C18.4449 6.01207 18.2818 5.99477 18.4453 5.99967C18.6092 6.00457 18.9215 6.03247 18.8828 6.03087C18.9237 6.03237 18.9669 6.02937 19.0078 6.03087C19.0923 6.03557 19.1732 6.05887 19.2578 6.06217C19.3619 6.06627 19.6744 6.06757 19.5703 6.06217C19.3803 6.05237 19.5781 6.05707 20.0078 6.06217C20.5943 6.06217 21.0703 5.58617 21.0703 4.99967C21.0703 4.41317 20.5943 3.93717 20.0078 3.93717C19.5707 3.94957 19.7425 3.93197 19.5703 3.93717C19.6744 3.93177 19.3619 3.93307 19.2578 3.93717Z" fill="black"/>
<path d="M19.2578 7.93717C19.1718 7.94057 19.0937 7.96417 19.0078 7.96847C18.8167 7.97777 18.6366 7.99567 18.4453 7.99967C18.3802 8.00107 18.1615 8.00227 18.2266 7.99967C18.4827 7.98927 18.2392 7.99837 18.0078 7.99967C17.4525 7.99967 17.0078 8.44437 17.0078 8.99967C17.0078 9.55497 17.4525 9.99967 18.0078 9.99967C18.4449 10.0121 18.2818 9.99477 18.4453 9.99967C18.6092 10.0046 18.9215 10.0325 18.8828 10.0309C18.9237 10.0324 18.9669 10.0294 19.0078 10.0309C19.0923 10.0356 19.1732 10.0589 19.2578 10.0622C19.3619 10.0663 19.6744 10.0676 19.5703 10.0622C19.3803 10.0524 19.5781 10.0571 20.0078 10.0622C20.5943 10.0622 21.0703 9.58617 21.0703 8.99967C21.0703 8.41317 20.5943 7.93717 20.0078 7.93717C19.5707 7.94957 19.7425 7.93197 19.5703 7.93717C19.6744 7.93177 19.3619 7.93307 19.2578 7.93717Z" fill="black"/>
<path d="M32.0078 11.9375C27.341 11.9454 22.6746 11.9961 18.0078 12C17.4525 12 17.0078 12.4447 17.0078 13C17.0078 13.5553 17.4525 14 18.0078 14C22.6746 14.0039 27.341 14.0546 32.0078 14.0625C32.5943 14.0625 33.0703 13.5865 33.0703 13C33.0703 12.4135 32.5943 11.9375 32.0078 11.9375Z" fill="black"/>
<path d="M25.2578 3.93717C25.1718 3.94057 25.0937 3.96417 25.0078 3.96847C24.8167 3.97777 24.6366 3.99567 24.4453 3.99967C24.3802 4.00107 24.1615 4.00227 24.2266 3.99967C24.4827 3.98927 24.2392 3.99837 24.0078 3.99967C23.4525 3.99967 23.0078 4.44437 23.0078 4.99967C23.0078 5.55497 23.4525 5.99967 24.0078 5.99967C24.4449 6.01207 24.2818 5.99477 24.4453 5.99967C24.6092 6.00457 24.9215 6.03247 24.8828 6.03087C24.9237 6.03237 24.9669 6.02937 25.0078 6.03087C25.0923 6.03557 25.1732 6.05887 25.2578 6.06217C25.3619 6.06627 25.6744 6.06757 25.5703 6.06217C25.3803 6.05237 25.5781 6.05707 26.0078 6.06217C26.5943 6.06217 27.0703 5.58617 27.0703 4.99967C27.0703 4.41317 26.5943 3.93717 26.0078 3.93717C25.5707 3.94957 25.7425 3.93197 25.5703 3.93717C25.6744 3.93177 25.3619 3.93307 25.2578 3.93717Z" fill="black"/>
<path d="M25.2578 7.93717C25.1718 7.94057 25.0937 7.96417 25.0078 7.96847C24.8167 7.97777 24.6366 7.99567 24.4453 7.99967C24.3802 8.00107 24.1615 8.00227 24.2266 7.99967C24.4827 7.98927 24.2392 7.99837 24.0078 7.99967C23.4525 7.99967 23.0078 8.44437 23.0078 8.99967C23.0078 9.55497 23.4525 9.99967 24.0078 9.99967C24.4449 10.0121 24.2818 9.99477 24.4453 9.99967C24.6092 10.0046 24.9215 10.0325 24.8828 10.0309C24.9237 10.0324 24.9669 10.0294 25.0078 10.0309C25.0923 10.0356 25.1732 10.0589 25.2578 10.0622C25.3619 10.0663 25.6744 10.0676 25.5703 10.0622C25.3803 10.0524 25.5781 10.0571 26.0078 10.0622C26.5943 10.0622 27.0703 9.58617 27.0703 8.99967C27.0703 8.41317 26.5943 7.93717 26.0078 7.93717C25.5707 7.94957 25.7425 7.93197 25.5703 7.93717C25.6744 7.93177 25.3619 7.93307 25.2578 7.93717Z" fill="black"/>
<path d="M31.2578 3.93717C31.1718 3.94057 31.0937 3.96417 31.0078 3.96847C30.8167 3.97777 30.6366 3.99567 30.4453 3.99967C30.3802 4.00107 30.1615 4.00227 30.2266 3.99967C30.4827 3.98927 30.2392 3.99837 30.0078 3.99967C29.4525 3.99967 29.0078 4.44437 29.0078 4.99967C29.0078 5.55497 29.4525 5.99967 30.0078 5.99967C30.4449 6.01207 30.2818 5.99477 30.4453 5.99967C30.6092 6.00457 30.9215 6.03247 30.8828 6.03087C30.9237 6.03237 30.9669 6.02937 31.0078 6.03087C31.0923 6.03557 31.1732 6.05887 31.2578 6.06217C31.3619 6.06627 31.6744 6.06757 31.5703 6.06217C31.3803 6.05237 31.5781 6.05707 32.0078 6.06217C32.5943 6.06217 33.0703 5.58617 33.0703 4.99967C33.0703 4.41317 32.5943 3.93717 32.0078 3.93717C31.5707 3.94957 31.7425 3.93197 31.5703 3.93717C31.6744 3.93177 31.3619 3.93307 31.2578 3.93717Z" fill="black"/>
<path d="M31.2578 7.93717C31.1718 7.94057 31.0937 7.96417 31.0078 7.96847C30.8167 7.97777 30.6366 7.99567 30.4453 7.99967C30.3802 8.00107 30.1615 8.00227 30.2266 7.99967C30.4827 7.98927 30.2392 7.99837 30.0078 7.99967C29.4525 7.99967 29.0078 8.44437 29.0078 8.99967C29.0078 9.55497 29.4525 9.99967 30.0078 9.99967C30.4449 10.0121 30.2818 9.99477 30.4453 9.99967C30.6092 10.0046 30.9215 10.0325 30.8828 10.0309C30.9237 10.0324 30.9669 10.0294 31.0078 10.0309C31.0923 10.0356 31.1732 10.0589 31.2578 10.0622C31.3619 10.0663 31.6744 10.0676 31.5703 10.0622C31.3803 10.0524 31.5781 10.0571 32.0078 10.0622C32.5943 10.0622 33.0703 9.58617 33.0703 8.99967C33.0703 8.41317 32.5943 7.93717 32.0078 7.93717C31.5707 7.94957 31.7425 7.93197 31.5703 7.93717C31.6744 7.93177 31.3619 7.93307 31.2578 7.93717Z" fill="black"/>
<path d="M37.2578 3.93717C37.1718 3.94057 37.0937 3.96417 37.0078 3.96847C36.8167 3.97777 36.6366 3.99567 36.4453 3.99967C36.3802 4.00107 36.1615 4.00227 36.2266 3.99967C36.4827 3.98927 36.2392 3.99837 36.0078 3.99967C35.4525 3.99967 35.0078 4.44437 35.0078 4.99967C35.0078 5.55497 35.4525 5.99967 36.0078 5.99967C36.4449 6.01207 36.2818 5.99477 36.4453 5.99967C36.6092 6.00457 36.9215 6.03247 36.8828 6.03087C36.9237 6.03237 36.9669 6.02937 37.0078 6.03087C37.0923 6.03557 37.1732 6.05887 37.2578 6.06217C37.3619 6.06627 37.6744 6.06757 37.5703 6.06217C37.3803 6.05237 37.5781 6.05707 38.0078 6.06217C38.5943 6.06217 39.0703 5.58617 39.0703 4.99967C39.0703 4.41317 38.5943 3.93717 38.0078 3.93717C37.5707 3.94957 37.7425 3.93197 37.5703 3.93717C37.6744 3.93177 37.3619 3.93307 37.2578 3.93717Z" fill="black"/>
<path d="M37.2578 7.93717C37.1718 7.94057 37.0937 7.96417 37.0078 7.96847C36.8167 7.97777 36.6366 7.99567 36.4453 7.99967C36.3802 8.00107 36.1615 8.00227 36.2266 7.99967C36.4827 7.98927 36.2392 7.99837 36.0078 7.99967C35.4525 7.99967 35.0078 8.44437 35.0078 8.99967C35.0078 9.55497 35.4525 9.99967 36.0078 9.99967C36.4449 10.0121 36.2818 9.99477 36.4453 9.99967C36.6092 10.0046 36.9215 10.0325 36.8828 10.0309C36.9237 10.0324 36.9669 10.0294 37.0078 10.0309C37.0923 10.0356 37.1732 10.0589 37.2578 10.0622C37.3619 10.0663 37.6744 10.0676 37.5703 10.0622C37.3803 10.0524 37.5781 10.0571 38.0078 10.0622C38.5943 10.0622 39.0703 9.58617 39.0703 8.99967C39.0703 8.41317 38.5943 7.93717 38.0078 7.93717C37.5707 7.94957 37.7425 7.93197 37.5703 7.93717C37.6744 7.93177 37.3619 7.93307 37.2578 7.93717Z" fill="black"/>
<path d="M37.2578 11.9372C37.1718 11.9406 37.0937 11.9642 37.0078 11.9685C36.8167 11.9778 36.6366 11.9957 36.4453 11.9997C36.3802 12.0011 36.1615 12.0023 36.2266 11.9997C36.4827 11.9893 36.2392 11.9984 36.0078 11.9997C35.4525 11.9997 35.0078 12.4444 35.0078 12.9997C35.0078 13.555 35.4525 13.9997 36.0078 13.9997C36.4449 14.0121 36.2818 13.9948 36.4453 13.9997C36.6092 14.0046 36.9215 14.0325 36.8828 14.0309C36.9237 14.0324 36.9669 14.0294 37.0078 14.0309C37.0923 14.0356 37.1732 14.0589 37.2578 14.0622C37.3619 14.0663 37.6744 14.0676 37.5703 14.0622C37.3803 14.0524 37.5781 14.0571 38.0078 14.0622C38.5943 14.0622 39.0703 13.5862 39.0703 12.9997C39.0703 12.4132 38.5943 11.9372 38.0078 11.9372C37.5707 11.9496 37.7425 11.932 37.5703 11.9372C37.6744 11.9318 37.3619 11.9331 37.2578 11.9372Z" fill="black"/>
<path d="M43.2578 3.93717C43.1718 3.94057 43.0937 3.96417 43.0078 3.96847C42.8167 3.97777 42.6366 3.99567 42.4453 3.99967C42.3802 4.00107 42.1615 4.00227 42.2266 3.99967C42.4827 3.98927 42.2392 3.99837 42.0078 3.99967C41.4525 3.99967 41.0078 4.44437 41.0078 4.99967C41.0078 5.55497 41.4525 5.99967 42.0078 5.99967C42.4449 6.01207 42.2818 5.99477 42.4453 5.99967C42.6092 6.00457 42.9215 6.03247 42.8828 6.03087C42.9237 6.03237 42.9669 6.02937 43.0078 6.03087C43.0923 6.03557 43.1732 6.05887 43.2578 6.06217C43.3619 6.06627 43.6744 6.06757 43.5703 6.06217C43.3803 6.05237 43.5781 6.05707 44.0078 6.06217C44.5943 6.06217 45.0703 5.58617 45.0703 4.99967C45.0703 4.41317 44.5943 3.93717 44.0078 3.93717C43.5707 3.94957 43.7425 3.93197 43.5703 3.93717C43.6744 3.93177 43.3619 3.93307 43.2578 3.93717Z" fill="black"/>
<path d="M42.0078 7.99912C41.4525 7.99912 41.0078 8.44382 41.0078 8.99912C41.0078 9.55442 41.4525 9.99912 42.0078 9.99912C42.477 11.4964 42.5601 11.7502 42.4766 11.4991C42.317 11.0197 42.2409 10.5041 42.2266 9.99912C42.2266 9.99912 42.4764 9.99822 42.7578 9.99912C42.8306 9.99932 42.9037 9.99832 42.9766 9.99912C42.9675 10.5074 42.9495 11.0237 42.9453 11.5303C42.9436 11.7387 43.1536 12.161 42.9453 12.1553C42.6808 12.1482 42.9487 12.1397 42.9453 12.9991C42.9453 13.5854 43.4215 14.0616 44.0078 14.0616C44.5941 14.0616 45.0703 13.5854 45.0703 12.9991C43.5395 10.4964 43.0095 9.72232 43.539 10.4991C43.9603 11.117 44.4485 11.7399 45.0703 12.1553C45.2435 12.2711 45.072 11.7387 45.0703 11.5303C45.0682 11.2745 45.0428 11.005 45.039 10.7491C45.0293 10.089 45.1926 8.84122 44.6328 8.31162C44.1744 7.87792 43.4608 7.99572 42.8828 7.99912C42.7337 8.00002 42.5944 7.99882 42.4453 7.99912C42.3802 7.99922 42.2003 7.93952 42.2266 7.99912C42.6059 8.85932 42.2392 7.99872 42.0078 7.99912Z" fill="black"/>
<path d="M64.0078 0C60.0691 0 57.0078 4.0817 57.0078 9C57.0078 10.4779 57.0078 15.8113 57.0078 17C57.0078 17.5523 57.4555 18 58.0078 18C58.7992 18 69.2021 18 70.0078 18C70.5601 18 71.0078 17.5523 71.0078 17C71.0078 15.8536 71.0078 10.5137 71.0078 9C71.0078 4.0817 67.9465 0 64.0078 0ZM64.0078 2C66.6965 2 69.0078 5.0817 69.0078 9C69.0078 10.3245 69.0078 14.1892 69.0078 16C67.1146 16 60.891 16 59.0078 16C59.0078 14.1626 59.0078 10.2932 59.0078 9C59.0078 5.0817 61.3191 2 64.0078 2Z" fill="black"/>
<path d="M58.7266 7.65625C58.1743 7.65625 57.7266 8.10405 57.7266 8.65625C57.7266 9.20855 58.1743 9.65625 58.7266 9.65625H70.0078C70.5601 9.65625 71.0078 9.20855 71.0078 8.65625C71.0078 8.10405 70.5601 7.65635 70.0078 7.65625H58.7266Z" fill="black"/>
<path d="M64.3516 0.6875C63.7993 0.6875 63.3516 1.1352 63.3516 1.6875V8.6562C63.3516 9.2085 63.7993 9.6562 64.3516 9.6562C64.9038 9.6562 65.3515 9.2085 65.3516 8.6562V1.6875C65.3516 1.1352 64.9038 0.6875 64.3516 0.6875Z" fill="black"/>
</svg>
