<svg width="84" height="84" viewBox="0 0 84 84" fill="none" xmlns="http://www.w3.org/2000/svg">
<path d="M62.55 22.37H81.92C82.3178 22.37 82.6994 22.212 82.9807 21.9307C83.262 21.6494 83.42 21.2678 83.42 20.87V1.5C83.42 1.10218 83.262 0.720645 82.9807 0.439341C82.6994 0.158036 82.3178 0 81.92 0H62.55C62.1522 0 61.7706 0.158036 61.4893 0.439341C61.208 0.720645 61.05 1.10218 61.05 1.5V10.58L60.93 10.44L52.93 2.44C52.6457 2.17504 52.2696 2.03079 51.881 2.03765C51.4924 2.04451 51.1216 2.20193 50.8468 2.47676C50.5719 2.75158 50.4145 3.12235 50.4076 3.51095C50.4008 3.89956 50.545 4.27565 50.81 4.56L55.91 9.65H37.07C36.6722 9.65 36.2906 9.80804 36.0093 10.0893C35.728 10.3706 35.57 10.7522 35.57 11.15V40.44H22.37V32.24C22.37 31.8422 22.212 31.4606 21.9307 31.1793C21.6494 30.898 21.2678 30.74 20.87 30.74H1.5C1.10218 30.74 0.720644 30.898 0.43934 31.1793C0.158035 31.4606 0 31.8422 0 32.24V51.62C0 52.0178 0.158035 52.3994 0.43934 52.6807C0.720644 52.962 1.10218 53.12 1.5 53.12H20.87C21.2678 53.12 21.6494 52.962 21.9307 52.6807C22.212 52.3994 22.37 52.0178 22.37 51.62V43.44H35.57V73.33C35.57 73.7278 35.728 74.1094 36.0093 74.3907C36.2906 74.672 36.6722 74.83 37.07 74.83H55.93L50.84 79.93C50.6926 80.0673 50.5744 80.2329 50.4924 80.4169C50.4105 80.6009 50.3664 80.7995 50.3628 81.001C50.3593 81.2024 50.3963 81.4024 50.4718 81.5892C50.5472 81.776 50.6595 81.9456 50.8019 82.0881C50.9444 82.2305 51.114 82.3428 51.3008 82.4182C51.4876 82.4937 51.6876 82.5307 51.889 82.5272C52.0905 82.5236 52.2891 82.4795 52.4731 82.3976C52.6571 82.3156 52.8227 82.1974 52.96 82.05L60.96 74.05L61.05 73.93V82.36C61.05 82.7578 61.208 83.1394 61.4893 83.4207C61.7706 83.702 62.1522 83.86 62.55 83.86H81.92C82.3178 83.86 82.6994 83.702 82.9807 83.4207C83.262 83.1394 83.42 82.7578 83.42 82.36V62.99C83.42 62.5922 83.262 62.2106 82.9807 61.9293C82.6994 61.648 82.3178 61.49 81.92 61.49H62.55C62.1522 61.49 61.7706 61.648 61.4893 61.9293C61.208 62.2106 61.05 62.5922 61.05 62.99V72.1L60.93 71.93L52.93 63.93C52.6457 63.665 52.2696 63.5208 51.881 63.5276C51.4924 63.5345 51.1216 63.6919 50.8468 63.9668C50.5719 64.2416 50.4145 64.6124 50.4076 65.001C50.4008 65.3896 50.545 65.7657 50.81 66.05L56.54 71.77H38.54V43.44H56.54L50.81 49.17C50.6626 49.3073 50.5444 49.4729 50.4624 49.6569C50.3805 49.8409 50.3364 50.0395 50.3328 50.241C50.3293 50.4424 50.3663 50.6424 50.4418 50.8292C50.5172 51.016 50.6295 51.1856 50.7719 51.3281C50.9144 51.4705 51.084 51.5828 51.2708 51.6582C51.4576 51.7337 51.6576 51.7707 51.859 51.7672C52.0604 51.7636 52.2591 51.7195 52.4431 51.6376C52.6271 51.5556 52.7927 51.4374 52.93 51.29L60.93 43.29L61.05 43.15V51.59C61.05 51.9878 61.208 52.3694 61.4893 52.6507C61.7706 52.932 62.1522 53.09 62.55 53.09H81.92C82.3178 53.09 82.6994 52.932 82.9807 52.6507C83.262 52.3694 83.42 51.9878 83.42 51.59V32.24C83.42 31.8422 83.262 31.4606 82.9807 31.1793C82.6994 30.898 82.3178 30.74 81.92 30.74H62.55C62.1522 30.74 61.7706 30.898 61.4893 31.1793C61.208 31.4606 61.05 31.8422 61.05 32.24V41.34L60.93 41.2L52.93 33.2C52.6457 32.935 52.2696 32.7908 51.881 32.7976C51.4924 32.8045 51.1216 32.9619 50.8468 33.2368C50.5719 33.5116 50.4145 33.8824 50.4076 34.271C50.4008 34.6596 50.545 35.0356 50.81 35.32L55.9 40.41H38.57V12.68H56.57L50.84 18.4C50.6926 18.5373 50.5744 18.7029 50.4924 18.8869C50.4105 19.0709 50.3664 19.2695 50.3628 19.471C50.3593 19.6724 50.3963 19.8724 50.4718 20.0592C50.5472 20.246 50.6595 20.4156 50.8019 20.5581C50.9444 20.7005 51.114 20.8128 51.3008 20.8882C51.4876 20.9637 51.6876 21.0007 51.889 20.9972C52.0905 20.9936 52.2891 20.9495 52.4731 20.8676C52.6571 20.7856 52.8227 20.6674 52.96 20.52L60.96 12.52L61.08 12.38V20.83C61.0747 21.0278 61.1086 21.2247 61.1797 21.4094C61.2508 21.5941 61.3578 21.7629 61.4944 21.906C61.6311 22.0492 61.7947 22.1638 61.9758 22.2435C62.157 22.3231 62.3521 22.3661 62.55 22.37ZM64.05 3H80.42V19.37H64.05V3ZM19.37 50.12H3V33.74H19.37V50.12ZM64.05 64.49H80.42V80.86H64.05V64.49ZM64.05 33.74H80.42V50.12H64.05V33.74Z" fill="black"/>
</svg>
