<svg width="180" height="195" viewBox="0 0 180 195" fill="none" xmlns="http://www.w3.org/2000/svg">
<path d="M154.48 58.7672C159.125 43.3132 163.771 27.8592 168.416 12.4052C162.594 10.9289 157.424 9.84378 152.018 8.75534C127.39 3.94295 102.561 0.576913 76.7428 0.926855C52.8085 2.28679 17.2843 2.61497 2.65526 36.4829C-4.15542 52.0766 5.71223 71.8986 16.1334 79.4666C26.6228 88.27 37.7988 93.3103 48.8986 97.7069C71.2102 106.217 93.6922 111.141 116.392 114.965C121.533 115.805 126.692 116.579 131.794 117.193C131.948 116.213 132.103 115.233 132.257 114.253C127.385 112.911 122.385 111.395 117.465 109.827C95.76 102.832 74.4198 94.6502 55.0972 83.8366C36.1127 73.8886 17.9487 55.649 26.3625 46.9274C32.4075 35.3729 55.1656 34.0019 76.2009 36.9191C97.6609 39.8176 119.808 46.1002 141.13 53.6613C145.666 55.29 150.67 57.142 154.48 58.7672Z" fill="#F3C323"/>
<path d="M67.1755 82.2588C66.9767 84.1846 66.7778 86.1105 66.579 88.0363C71.2333 89.2426 75.8593 90.5237 80.4572 91.8858C81.5869 92.2181 82.6406 92.5386 83.7475 92.8762C101.115 98.2325 118.416 104.645 133.31 113.464C148.602 122.243 158.287 134.419 153.494 143.111C149.193 155.458 126.62 158.782 105.028 157.799C83.0149 156.843 59.867 152.579 37.2683 146.937C32.8908 145.826 28.2176 144.59 24.5092 143.436C22.2248 159.03 19.9403 174.623 17.6559 190.217C23.2921 191.081 27.9754 191.593 33.1072 192.139C58.6997 194.694 84.0937 195.741 109.998 192.998C133.791 189.504 169.609 185.472 178.322 150.766C180.99 139.232 175.677 124.295 167.045 116.183C158.607 107.684 149.236 102.922 140.07 98.9678C121.668 91.3493 103.293 87.5376 85.0152 84.6176C83.8549 84.4368 82.7513 84.2738 81.572 84.0993C76.7694 83.3985 71.9736 82.7883 67.1755 82.2588Z" fill="#279048"/>
</svg>
