<svg width="24" height="24" viewBox="0 0 24 24" fill="none" xmlns="http://www.w3.org/2000/svg">
<path d="M7.5 6C7.10218 6 6.72064 6.15804 6.43934 6.43934C6.15804 6.72064 6 7.10218 6 7.5V16.5C6 16.8978 6.15804 17.2794 6.43934 17.5607C6.72064 17.842 7.10218 18 7.5 18H16.5C16.8978 18 17.2794 17.842 17.5607 17.5607C17.842 17.2794 18 16.8978 18 16.5V7.5C18 7.10218 17.842 6.72064 17.5607 6.43934C17.2794 6.15804 16.8978 6 16.5 6H7.5ZM7.5 4.5H16.5C17.2956 4.5 18.0587 4.81607 18.6213 5.37868C19.1839 5.94129 19.5 6.70435 19.5 7.5V16.5C19.5 17.2956 19.1839 18.0587 18.6213 18.6213C18.0587 19.1839 17.2956 19.5 16.5 19.5H7.5C6.70435 19.5 5.94129 19.1839 5.37868 18.6213C4.81607 18.0587 4.5 17.2956 4.5 16.5V7.5C4.5 6.70435 4.81607 5.94129 5.37868 5.37868C5.94129 4.81607 6.70435 4.5 7.5 4.5Z" fill="#5B8FF9"/>
<path d="M12 1.5C12.1989 1.5 12.3897 1.57902 12.5303 1.71967C12.671 1.86032 12.75 2.05109 12.75 2.25V5.25H11.25V2.25C11.25 2.05109 11.329 1.86032 11.4697 1.71967C11.6103 1.57902 11.8011 1.5 12 1.5ZM15.75 1.5C15.9489 1.5 16.1397 1.57902 16.2803 1.71967C16.421 1.86032 16.5 2.05109 16.5 2.25V5.25H15V2.25C15 2.05109 15.079 1.86032 15.2197 1.71967C15.3603 1.57902 15.5511 1.5 15.75 1.5ZM8.25 1.5C8.44891 1.5 8.63968 1.57902 8.78033 1.71967C8.92098 1.86032 9 2.05109 9 2.25V5.25H7.5V2.25C7.5 2.05109 7.57902 1.86032 7.71967 1.71967C7.86032 1.57902 8.05109 1.5 8.25 1.5ZM12 22.5C11.8011 22.5 11.6103 22.421 11.4697 22.2803C11.329 22.1397 11.25 21.9489 11.25 21.75V18.75H12.75V21.75C12.75 21.9489 12.671 22.1397 12.5303 22.2803C12.3897 22.421 12.1989 22.5 12 22.5ZM15.75 22.5C15.5511 22.5 15.3603 22.421 15.2197 22.2803C15.079 22.1397 15 21.9489 15 21.75V18.75H16.5V21.75C16.5 21.9489 16.421 22.1397 16.2803 22.2803C16.1397 22.421 15.9489 22.5 15.75 22.5ZM8.25 22.5C8.05109 22.5 7.86032 22.421 7.71967 22.2803C7.57902 22.1397 7.5 21.9489 7.5 21.75V18.75H9V21.75C9 21.9489 8.92098 22.1397 8.78033 22.2803C8.63968 22.421 8.44891 22.5 8.25 22.5ZM1.5 12C1.5 11.8011 1.57902 11.6103 1.71967 11.4697C1.86032 11.329 2.05109 11.25 2.25 11.25H5.25V12.75H2.25C2.05109 12.75 1.86032 12.671 1.71967 12.5303C1.57902 12.3897 1.5 12.1989 1.5 12ZM1.5 8.25C1.5 8.05109 1.57902 7.86032 1.71967 7.71967C1.86032 7.57902 2.05109 7.5 2.25 7.5H5.25V9H2.25C2.05109 9 1.86032 8.92098 1.71967 8.78033C1.57902 8.63968 1.5 8.44891 1.5 8.25ZM1.5 15.75C1.5 15.5511 1.57902 15.3603 1.71967 15.2197C1.86032 15.079 2.05109 15 2.25 15H5.25V16.5H2.25C2.05109 16.5 1.86032 16.421 1.71967 16.2803C1.57902 16.1397 1.5 15.9489 1.5 15.75ZM22.5 12C22.5 12.1989 22.421 12.3897 22.2803 12.5303C22.1397 12.671 21.9489 12.75 21.75 12.75H18.75V11.25H21.75C21.9489 11.25 22.1397 11.329 22.2803 11.4697C22.421 11.6103 22.5 11.8011 22.5 12ZM22.5 8.25C22.5 8.44891 22.421 8.63968 22.2803 8.78033C22.1397 8.92098 21.9489 9 21.75 9H18.75V7.5H21.75C21.9489 7.5 22.1397 7.57902 22.2803 7.71967C22.421 7.86032 22.5 8.05109 22.5 8.25ZM22.5 15.75C22.5 15.9489 22.421 16.1397 22.2803 16.2803C22.1397 16.421 21.9489 16.5 21.75 16.5H18.75V15H21.75C21.9489 15 22.1397 15.079 22.2803 15.2197C22.421 15.3603 22.5 15.5511 22.5 15.75Z" fill="#5B8FF9"/>
</svg>
