<svg width="24" height="24" viewBox="0 0 24 24" fill="none" xmlns="http://www.w3.org/2000/svg">
<path fill-rule="evenodd" clip-rule="evenodd" d="M12.255 19.35C12.1813 19.2846 12.1212 19.2053 12.0782 19.1167C12.0351 19.0281 12.01 18.9319 12.0041 18.8335C11.9983 18.7352 12.0118 18.6367 12.0441 18.5436C12.0763 18.4505 12.1266 18.3647 12.192 18.291L17.742 12.036L12.192 5.78099C12.0599 5.6322 11.9924 5.43704 12.0042 5.23844C12.016 5.03984 12.1062 4.85407 12.255 4.72199C12.4038 4.58991 12.599 4.52235 12.7976 4.53416C12.9962 4.54598 13.1819 4.6362 13.314 4.78499L19.314 11.535C19.4359 11.6722 19.5032 11.8494 19.5032 12.033C19.5032 12.2166 19.4359 12.3937 19.314 12.531L13.314 19.281C13.2485 19.3546 13.1692 19.4145 13.0805 19.4574C12.9918 19.5004 12.8956 19.5254 12.7972 19.5311C12.6989 19.5368 12.6004 19.5231 12.5074 19.4907C12.4143 19.4584 12.3286 19.408 12.255 19.3425L12.255 19.35Z" fill="white"/>
<path fill-rule="evenodd" clip-rule="evenodd" d="M6.29999 19.35C6.2263 19.2846 6.16621 19.2053 6.12317 19.1167C6.08012 19.0281 6.05495 18.9319 6.0491 18.8335C6.04325 18.7352 6.05683 18.6367 6.08907 18.5436C6.12131 18.4505 6.17157 18.3647 6.23699 18.291L11.787 12.036L6.23699 5.78099C6.17159 5.70732 6.12134 5.62148 6.08911 5.52839C6.05689 5.4353 6.04331 5.33678 6.04916 5.23844C6.05501 5.1401 6.08017 5.04388 6.12321 4.95527C6.16625 4.86665 6.22632 4.78739 6.29999 4.72199C6.37366 4.65659 6.45949 4.60634 6.55258 4.57412C6.64567 4.54189 6.7442 4.52831 6.84254 4.53416C6.94087 4.54001 7.03709 4.56517 7.12571 4.60821C7.21432 4.65125 7.29359 4.71132 7.35899 4.78499L13.359 11.535C13.4809 11.6722 13.5482 11.8494 13.5482 12.033C13.5482 12.2165 13.4809 12.3937 13.359 12.531L7.35899 19.281C7.2935 19.3546 7.21415 19.4145 7.12549 19.4574C7.03682 19.5004 6.94057 19.5254 6.84223 19.5311C6.74389 19.5368 6.64538 19.5231 6.55234 19.4907C6.45931 19.4584 6.37355 19.408 6.29999 19.3425L6.29999 19.35Z" fill="white"/>
</svg>
