<svg width="24" height="24" viewBox="0 0 24 24" fill="none" xmlns="http://www.w3.org/2000/svg">
<path d="M7 14.5C7.14267 14.5 7.26167 14.452 7.357 14.356C7.45233 14.26 7.5 14.1413 7.5 14V10C7.5 9.85801 7.452 9.73934 7.356 9.64401C7.26 9.54867 7.141 9.50067 6.999 9.50001C6.857 9.49934 6.73833 9.54734 6.643 9.64401C6.54767 9.74067 6.5 9.85934 6.5 10V14C6.5 14.142 6.548 14.2607 6.644 14.356C6.74 14.4513 6.858 14.4993 7 14.5ZM12.001 14.5C12.143 14.5 12.2617 14.452 12.357 14.356C12.4523 14.26 12.5 14.1413 12.5 14V10C12.5 9.85801 12.452 9.73934 12.356 9.64401C12.26 9.54867 12.141 9.50067 11.999 9.50001C11.857 9.49934 11.7383 9.54734 11.643 9.64401C11.5477 9.74067 11.5 9.85934 11.5 10V14C11.5 14.142 11.548 14.2607 11.644 14.356C11.74 14.4513 11.859 14.4993 12.001 14.5ZM17.001 14.5C17.1423 14.5 17.261 14.452 17.357 14.356C17.453 14.26 17.5007 14.1413 17.5 14V10C17.5 9.85801 17.452 9.73934 17.356 9.64401C17.26 9.54867 17.141 9.50067 16.999 9.50001C16.857 9.49934 16.7383 9.54734 16.643 9.64401C16.5477 9.74067 16.5 9.85934 16.5 10V14C16.5 14.142 16.548 14.2607 16.644 14.356C16.74 14.4513 16.859 14.4993 17.001 14.5ZM4.616 17H19.385C19.5383 17 19.6793 16.936 19.808 16.808C19.9367 16.68 20.0007 16.5387 20 16.384V7.61601C20 7.46201 19.936 7.32067 19.808 7.19201C19.68 7.06334 19.539 6.99934 19.385 7.00001H4.615C4.46167 7.00001 4.32067 7.06401 4.192 7.19201C4.06333 7.32001 3.99933 7.46134 4 7.61601V16.385C4 16.5383 4.064 16.6793 4.192 16.808C4.32 16.9367 4.461 17.0007 4.615 17M4.616 18C4.15533 18 3.771 17.846 3.463 17.538C3.155 17.23 3.00067 16.8453 3 16.384V7.61601C3 7.15534 3.15433 6.77101 3.463 6.46301C3.77167 6.15501 4.15567 6.00067 4.615 6.00001H5.5V4.50001C5.5 4.35801 5.548 4.23934 5.644 4.14401C5.74 4.04867 5.859 4.00067 6.001 4.00001C6.143 3.99934 6.26167 4.04734 6.357 4.14401C6.45233 4.24067 6.5 4.35934 6.5 4.50001V6.00001H11.5V4.50001C11.5 4.35801 11.548 4.23934 11.644 4.14401C11.74 4.04867 11.859 4.00067 12.001 4.00001C12.143 3.99934 12.2617 4.04734 12.357 4.14401C12.4523 4.24067 12.5 4.35934 12.5 4.50001V6.00001H17.5V4.50001C17.5 4.35801 17.548 4.23934 17.644 4.14401C17.74 4.04867 17.859 4.00067 18.001 4.00001C18.143 3.99934 18.2617 4.04734 18.357 4.14401C18.4523 4.24067 18.5 4.35934 18.5 4.50001V6.00001H19.385C19.845 6.00001 20.229 6.15434 20.537 6.46301C20.845 6.77167 20.9993 7.15601 21 7.61601V16.385C21 16.845 20.8457 17.2293 20.537 17.538C20.2283 17.8467 19.8443 18.0007 19.385 18H18.5V19.5C18.5 19.642 18.452 19.7607 18.356 19.856C18.26 19.9513 18.141 19.9993 17.999 20C17.857 20.0007 17.7383 19.9527 17.643 19.856C17.5477 19.7593 17.5 19.6407 17.5 19.5V18H12.5V19.5C12.5 19.642 12.452 19.7607 12.356 19.856C12.26 19.9513 12.141 19.9993 11.999 20C11.857 20.0007 11.7383 19.9527 11.643 19.856C11.5477 19.7593 11.5 19.6407 11.5 19.5V18H6.5V19.5C6.5 19.642 6.452 19.7607 6.356 19.856C6.26 19.9513 6.141 19.9993 5.999 20C5.857 20.0007 5.73833 19.9527 5.643 19.856C5.54767 19.7593 5.5 19.6407 5.5 19.5V18H4.616Z" fill="#4ADE80"/>
</svg>
